<svg xmlns="http://www.w3.org/2000/svg" viewBox="0 0 300 300">
  <rect fill="#4a308d" x="0" y="0" width="300px" height="300px" class="logo-background-square">
  </rect>

  <g fill="#ffffff"
    transform="matrix(3.106703519821167,0,0,3.106703519821167,17.17289973132113,152.70939790300548)">
    <path
      d="M5.41 12.74C7.93 12.74 9.91 11.22 9.91 9.26L9.91 2.10L7.23 2.10L7.23 8.75C7.23 9.68 6.42 10.41 5.41 10.41C4.39 10.41 3.59 9.68 3.59 8.75L3.59 2.10L0.91 2.10L0.91 9.26C0.91 11.22 2.89 12.74 5.41 12.74ZM16.21 5.46C15.47 5.46 14.84 5.71 14.37 6.11L14.37 5.62L11.78 5.60L11.78 16.80L14.37 16.82L14.37 12.09C14.84 12.50 15.47 12.74 16.21 12.74C18.10 12.74 19.58 11.15 19.58 9.10C19.58 7.05 18.10 5.46 16.21 5.46ZM15.61 10.48C14.84 10.48 14.23 9.89 14.23 9.10C14.23 8.31 14.84 7.72 15.61 7.72C16.40 7.72 16.99 8.31 16.99 9.10C16.99 9.89 16.40 10.48 15.61 10.48ZM23.45 12.74C25.15 12.74 26.11 11.73 26.11 10.40C26.11 8.94 24.89 8.37 23.87 7.96C23.49 7.81 23.29 7.74 23.29 7.58C23.29 7.46 23.40 7.32 23.73 7.32C24.19 7.32 24.61 7.58 24.85 7.81L25.99 6.32C25.38 5.81 24.54 5.46 23.54 5.46C21.75 5.46 20.76 6.62 20.76 7.79C20.76 9.28 22.38 9.71 23.01 9.96C23.59 10.17 23.73 10.33 23.73 10.48C23.73 10.66 23.56 10.76 23.26 10.76C23.00 10.76 22.54 10.69 22.16 10.08L20.34 11.03C20.79 12.18 22.17 12.74 23.45 12.74ZM31.87 7.53L31.87 5.60L30.26 5.60L30.26 3.03L27.67 3.03L27.67 5.60L26.50 5.60L26.50 7.53L27.67 7.53L27.67 9.91C27.67 11.50 29.03 12.74 30.64 12.74C31.15 12.74 31.66 12.64 31.83 12.51L31.83 10.50L30.98 10.50C30.54 10.50 30.26 10.15 30.26 9.59L30.26 7.53ZM41.00 10.50C40.72 10.50 40.41 10.45 40.41 9.89L40.41 5.60L37.82 5.60L37.82 6.11C37.35 5.71 36.73 5.46 36.00 5.46C34.09 5.46 32.60 7.05 32.60 9.10C32.60 11.15 34.09 12.74 36.00 12.74C37.01 12.74 37.80 12.29 38.31 11.53C38.82 12.27 39.66 12.74 40.65 12.74C40.88 12.74 41.09 12.67 41.25 12.60L41.25 10.50ZM36.59 10.48C35.80 10.48 35.19 9.89 35.19 9.10C35.19 8.31 35.80 7.72 36.59 7.72C37.35 7.72 37.98 8.31 37.98 9.10C37.98 9.22 37.96 9.35 37.92 9.45L37.85 9.66C37.64 10.15 37.15 10.48 36.59 10.48ZM47.22 5.46C46.36 5.46 45.61 5.90 45.10 6.60L45.10 5.60L42.51 5.60L42.51 12.60L45.10 12.60L45.10 8.68C45.10 8.12 45.57 7.72 46.15 7.72C46.73 7.72 47.11 8.12 47.11 8.68L47.11 12.60L49.70 12.60L49.70 8.17C49.70 6.62 48.62 5.46 47.22 5.46ZM56.18 0.91L56.18 6.11C55.70 5.71 55.09 5.46 54.36 5.46C52.45 5.46 50.96 7.05 50.96 9.10C50.96 11.15 52.45 12.74 54.36 12.74C55.09 12.74 55.70 12.50 56.18 12.09L56.18 12.62L58.77 12.60L58.77 0.89ZM54.95 10.48C54.16 10.48 53.55 9.89 53.55 9.10C53.55 8.31 54.16 7.72 54.95 7.72C55.70 7.72 56.33 8.31 56.33 9.10C56.33 9.89 55.70 10.48 54.95 10.48ZM71.51 4.43L71.51 2.10L65.00 2.10L65.00 12.60L67.67 12.60L67.67 8.51L70.91 8.51L70.91 6.20L67.67 6.20L67.67 4.43ZM81.71 2.10L78.59 8.79L75.50 2.10L72.59 2.10L72.59 12.60L75.27 12.60L75.27 6.95L77.88 12.60L79.31 12.60L81.92 6.98L81.92 12.60L84.60 12.60L84.60 2.10Z">
    </path>
  </g>

  <g stroke="none" fill="#e96d77"
    transform="matrix(0.660220205783844,0,0,0.660220205783844,116.988659494253,71.65833188507696)">
    <path
      d="M50 69.23c-10.603 0-19.229-8.627-19.229-19.23S39.397 30.771 50 30.771c10.604 0 19.23 8.626 19.23 19.229 0 10.604-8.626 19.23-19.23 19.23zm0-30.459c-6.191 0-11.229 5.037-11.229 11.229 0 6.192 5.037 11.23 11.229 11.23 6.192 0 11.23-5.038 11.23-11.23 0-6.191-5.038-11.229-11.23-11.229z">
    </path>

    <path
      d="M50 84.457C31 84.457 15.542 69 15.542 50S31 15.542 50 15.542 84.457 31 84.457 50 69 84.457 50 84.457zm0-60.915c-14.589 0-26.458 11.869-26.458 26.458 0 14.589 11.869 26.457 26.458 26.457 14.589 0 26.457-11.868 26.457-26.457S64.589 23.542 50 23.542z">
    </path>

    <path
      d="M50 99.688C22.603 99.688.313 77.397.313 50S22.603.313 50 .313 99.688 22.603 99.688 50 77.397 99.688 50 99.688zm0-91.375C27.014 8.313 8.313 27.014 8.313 50S27.014 91.688 50 91.688 91.688 72.986 91.688 50 72.986 8.313 50 8.313z">
    </path>
  </g>

  <g fill="#ffffff"
    transform="matrix(0.8267966508865356,0,0,0.8267966508865356,52.111405737902984,214.22829972884432)">
    <path
      d="M8.87 10.50C8.59 10.50 8.28 10.45 8.28 9.89L8.28 5.60L5.69 5.60L5.69 6.11C5.22 5.71 4.60 5.46 3.87 5.46C1.96 5.46 0.47 7.05 0.47 9.10C0.47 11.15 1.96 12.74 3.87 12.74C4.88 12.74 5.67 12.29 6.18 11.53C6.69 12.27 7.53 12.74 8.52 12.74C8.75 12.74 8.96 12.67 9.12 12.60L9.12 10.50ZM4.46 10.48C3.68 10.48 3.06 9.89 3.06 9.10C3.06 8.31 3.68 7.72 4.46 7.72C5.22 7.72 5.85 8.31 5.85 9.10C5.85 9.22 5.83 9.35 5.79 9.45L5.72 9.66C5.51 10.15 5.02 10.48 4.46 10.48ZM12.79 12.74C14.49 12.74 15.45 11.73 15.45 10.40C15.45 8.94 14.23 8.37 13.21 7.96C12.83 7.81 12.64 7.74 12.64 7.58C12.64 7.46 12.74 7.32 13.07 7.32C13.53 7.32 13.95 7.58 14.19 7.81L15.33 6.32C14.72 5.81 13.88 5.46 12.88 5.46C11.10 5.46 10.10 6.62 10.10 7.79C10.10 9.28 11.73 9.71 12.36 9.96C12.93 10.17 13.07 10.33 13.07 10.48C13.07 10.66 12.90 10.76 12.60 10.76C12.34 10.76 11.88 10.69 11.50 10.08L9.68 11.03C10.13 12.18 11.52 12.74 12.79 12.74ZM21.40 5.60L19.83 9.87L18.24 5.60L15.56 5.60L18.50 12.78L16.85 16.80L19.58 16.80L20.69 13.97L24.05 5.60ZM29.58 5.46C28.72 5.46 27.97 5.90 27.46 6.60L27.46 5.60L24.87 5.60L24.87 12.60L27.46 12.60L27.46 8.68C27.46 8.12 27.93 7.72 28.51 7.72C29.09 7.72 29.47 8.12 29.47 8.68L29.47 12.60L32.06 12.60L32.06 8.17C32.06 6.62 30.98 5.46 29.58 5.46ZM37.31 12.74C39.55 12.74 41.02 11.46 41.25 9.63L38.61 9.63C38.41 10.13 37.92 10.47 37.31 10.48C36.49 10.47 35.91 9.89 35.91 9.10C35.91 8.31 36.49 7.74 37.31 7.72C37.92 7.74 38.41 8.07 38.61 8.58L41.25 8.58C41.02 6.74 39.55 5.46 37.31 5.46C34.84 5.46 33.32 6.98 33.32 9.10C33.32 11.22 34.84 12.74 37.31 12.74ZM49.23 12.74C50.93 12.74 51.89 11.73 51.89 10.40C51.89 8.94 50.66 8.37 49.65 7.96C49.26 7.81 49.07 7.74 49.07 7.58C49.07 7.46 49.18 7.32 49.51 7.32C49.96 7.32 50.38 7.58 50.63 7.81L51.77 6.32C51.15 5.81 50.31 5.46 49.32 5.46C47.53 5.46 46.53 6.62 46.53 7.79C46.53 9.28 48.16 9.71 48.79 9.96C49.37 10.17 49.51 10.33 49.51 10.48C49.51 10.66 49.33 10.76 49.04 10.76C48.77 10.76 48.32 10.69 47.93 10.08L46.11 11.03C46.57 12.18 47.95 12.74 49.23 12.74ZM57.65 7.53L57.65 5.60L56.04 5.60L56.04 3.03L53.45 3.03L53.45 5.60L52.27 5.60L52.27 7.53L53.45 7.53L53.45 9.91C53.45 11.50 54.81 12.74 56.42 12.74C56.93 12.74 57.44 12.64 57.61 12.51L57.61 10.50L56.75 10.50C56.32 10.50 56.04 10.15 56.04 9.59L56.04 7.53ZM66.78 10.50C66.50 10.50 66.19 10.45 66.19 9.89L66.19 5.60L63.60 5.60L63.60 6.11C63.12 5.71 62.51 5.46 61.78 5.46C59.87 5.46 58.38 7.05 58.38 9.10C58.38 11.15 59.87 12.74 61.78 12.74C62.79 12.74 63.58 12.29 64.09 11.53C64.59 12.27 65.43 12.74 66.43 12.74C66.66 12.74 66.87 12.67 67.03 12.60L67.03 10.50ZM62.37 10.48C61.58 10.48 60.97 9.89 60.97 9.10C60.97 8.31 61.58 7.72 62.37 7.72C63.12 7.72 63.75 8.31 63.75 9.10C63.75 9.22 63.74 9.35 63.70 9.45L63.63 9.66C63.42 10.15 62.93 10.48 62.37 10.48ZM72.99 5.46C72.14 5.46 71.38 5.90 70.88 6.60L70.88 5.60L68.29 5.60L68.29 12.60L70.88 12.60L70.88 8.68C70.88 8.12 71.35 7.72 71.93 7.72C72.50 7.72 72.89 8.12 72.89 8.68L72.89 12.60L75.48 12.60L75.48 8.17C75.48 6.62 74.39 5.46 72.99 5.46ZM81.95 0.91L81.95 6.11C81.48 5.71 80.87 5.46 80.13 5.46C78.22 5.46 76.74 7.05 76.74 9.10C76.74 11.15 78.22 12.74 80.13 12.74C80.87 12.74 81.48 12.50 81.95 12.09L81.95 12.62L84.54 12.60L84.54 0.89ZM80.73 10.48C79.94 10.48 79.33 9.89 79.33 9.10C79.33 8.31 79.94 7.72 80.73 7.72C81.48 7.72 82.11 8.31 82.11 9.10C82.11 9.89 81.48 10.48 80.73 10.48ZM89.85 12.74C92.16 12.74 93.36 11.62 93.36 9.85L93.36 5.60L90.77 5.60L90.77 9.52C90.77 10.06 90.37 10.48 89.85 10.48C89.34 10.48 88.95 10.06 88.95 9.52L88.95 5.60L86.35 5.60L86.35 9.85C86.35 11.62 87.55 12.74 89.85 12.74ZM99.59 5.46C98.86 5.46 98.23 5.71 97.76 6.11L97.76 5.62L95.17 5.60L95.17 16.80L97.76 16.82L97.76 12.09C98.23 12.50 98.86 12.74 99.59 12.74C101.48 12.74 102.97 11.15 102.97 9.10C102.97 7.05 101.48 5.46 99.59 5.46ZM99.00 10.48C98.23 10.48 97.62 9.89 97.62 9.10C97.62 8.31 98.23 7.72 99.00 7.72C99.79 7.72 100.38 8.31 100.38 9.10C100.38 9.89 99.79 10.48 99.00 10.48ZM106.84 12.74C108.54 12.74 109.50 11.73 109.50 10.40C109.50 8.94 108.27 8.37 107.26 7.96C106.87 7.81 106.68 7.74 106.68 7.58C106.68 7.46 106.79 7.32 107.12 7.32C107.57 7.32 107.99 7.58 108.24 7.81L109.38 6.32C108.76 5.81 107.92 5.46 106.93 5.46C105.14 5.46 104.14 6.62 104.14 7.79C104.14 9.28 105.77 9.71 106.40 9.96C106.98 10.17 107.12 10.33 107.12 10.48C107.12 10.66 106.94 10.76 106.65 10.76C106.38 10.76 105.93 10.69 105.54 10.08L103.72 11.03C104.18 12.18 105.56 12.74 106.84 12.74ZM119.42 5.60L117.83 5.60L117.83 4.04C117.83 3.48 118.09 3.13 118.53 3.13L119.39 3.13L119.39 1.12C119.21 1.00 118.72 0.89 118.20 0.89C116.59 0.89 115.22 2.13 115.22 3.75L115.22 5.60L114.05 5.60L114.05 7.53L115.22 7.53L115.22 12.60L117.83 12.60L117.83 7.53L119.42 7.53ZM123.85 12.74C126.30 12.74 127.82 11.22 127.82 9.10C127.82 6.98 126.30 5.46 123.85 5.46C121.38 5.46 119.86 6.98 119.86 9.10C119.86 11.22 121.38 12.74 123.85 12.74ZM123.85 10.48C123.03 10.47 122.45 9.91 122.45 9.10C122.45 8.30 123.03 7.74 123.85 7.72C124.65 7.74 125.23 8.30 125.23 9.10C125.23 9.91 124.65 10.47 123.85 10.48ZM133.70 5.46C132.93 5.46 132.28 5.88 131.85 6.58L131.85 5.60L129.26 5.60L129.26 12.60L131.85 12.60L131.85 9.38C131.85 8.28 132.56 7.72 133.60 7.72C133.88 7.72 134.12 7.75 134.30 7.79L134.30 5.55C134.14 5.50 133.91 5.46 133.70 5.46ZM143.81 5.46C143.04 5.46 142.40 5.88 141.96 6.58L141.96 5.60L139.37 5.60L139.37 12.60L141.96 12.60L141.96 9.38C141.96 8.28 142.68 7.72 143.71 7.72C143.99 7.72 144.24 7.75 144.41 7.79L144.41 5.55C144.25 5.50 144.03 5.46 143.81 5.46ZM148.72 5.44C146.37 5.44 144.79 6.84 144.79 9.10C144.79 11.34 146.35 12.74 148.78 12.74C150.83 12.74 152.11 11.73 152.42 10.20L149.96 10.20C149.83 10.66 149.43 10.92 148.77 10.92C147.84 10.92 147.47 10.43 147.40 9.52L152.51 9.52L152.51 9.08C152.53 6.84 151.04 5.44 148.72 5.44ZM148.77 7.35C149.40 7.35 149.75 7.61 149.91 8.09L147.54 8.09C147.72 7.61 148.08 7.35 148.77 7.35ZM162.84 5.46C161.79 5.46 161 5.93 160.56 6.76C160.21 5.99 159.51 5.46 158.55 5.46C157.69 5.46 157.01 5.88 156.54 6.53L156.54 5.60L153.95 5.60L153.95 12.60L156.54 12.60L156.54 8.66C156.54 8.28 156.75 7.72 157.38 7.72C157.94 7.72 158.25 8.16 158.25 8.66L158.25 12.60L160.86 12.60L160.86 8.66C160.86 8.28 161.05 7.72 161.68 7.72C162.24 7.72 162.57 8.16 162.57 8.66L162.57 12.60L165.16 12.60L165.16 8.17C165.16 6.51 164.39 5.46 162.84 5.46ZM170.41 12.74C172.86 12.74 174.39 11.22 174.39 9.10C174.39 6.98 172.86 5.46 170.41 5.46C167.95 5.46 166.42 6.98 166.42 9.10C166.42 11.22 167.95 12.74 170.41 12.74ZM170.41 10.48C169.59 10.47 169.01 9.91 169.01 9.10C169.01 8.30 169.59 7.74 170.41 7.72C171.22 7.74 171.80 8.30 171.80 9.10C171.80 9.91 171.22 10.47 170.41 10.48ZM180.35 7.53L180.35 5.60L178.74 5.60L178.74 3.03L176.15 3.03L176.15 5.60L174.98 5.60L174.98 7.53L176.15 7.53L176.15 9.91C176.15 11.50 177.52 12.74 179.13 12.74C179.64 12.74 180.14 12.64 180.32 12.51L180.32 10.50L179.46 10.50C179.02 10.50 178.74 10.15 178.74 9.59L178.74 7.53ZM185.01 5.44C182.66 5.44 181.09 6.84 181.09 9.10C181.09 11.34 182.65 12.74 185.08 12.74C187.13 12.74 188.40 11.73 188.72 10.20L186.25 10.20C186.13 10.66 185.73 10.92 185.06 10.92C184.13 10.92 183.77 10.43 183.70 9.52L188.81 9.52L188.81 9.08C188.82 6.84 187.34 5.44 185.01 5.44ZM185.06 7.35C185.69 7.35 186.04 7.61 186.20 8.09L183.84 8.09C184.01 7.61 184.38 7.35 185.06 7.35ZM198.97 7.53L198.97 5.60L197.36 5.60L197.36 3.03L194.77 3.03L194.77 5.60L193.60 5.60L193.60 7.53L194.77 7.53L194.77 9.91C194.77 11.50 196.14 12.74 197.75 12.74C198.26 12.74 198.76 12.64 198.94 12.51L198.94 10.50L198.08 10.50C197.64 10.50 197.36 10.15 197.36 9.59L197.36 7.53ZM203.63 5.44C201.28 5.44 199.71 6.84 199.71 9.10C199.71 11.34 201.27 12.74 203.70 12.74C205.75 12.74 207.02 11.73 207.34 10.20L204.87 10.20C204.75 10.66 204.35 10.92 203.68 10.92C202.75 10.92 202.39 10.43 202.32 9.52L207.43 9.52L207.43 9.08C207.44 6.84 205.96 5.44 203.63 5.44ZM203.68 7.35C204.31 7.35 204.66 7.61 204.82 8.09L202.46 8.09C202.63 7.61 203.00 7.35 203.68 7.35ZM216.77 10.50C216.49 10.50 216.18 10.45 216.18 9.89L216.18 5.60L213.59 5.60L213.59 6.11C213.11 5.71 212.50 5.46 211.77 5.46C209.86 5.46 208.37 7.05 208.37 9.10C208.37 11.15 209.86 12.74 211.77 12.74C212.78 12.74 213.57 12.29 214.08 11.53C214.58 12.27 215.42 12.74 216.42 12.74C216.65 12.74 216.86 12.67 217.02 12.60L217.02 10.50ZM212.36 10.48C211.57 10.48 210.96 9.89 210.96 9.10C210.96 8.31 211.57 7.72 212.36 7.72C213.11 7.72 213.74 8.31 213.74 9.10C213.74 9.22 213.73 9.35 213.69 9.45L213.62 9.66C213.41 10.15 212.92 10.48 212.36 10.48ZM227.17 5.46C226.12 5.46 225.33 5.93 224.89 6.76C224.54 5.99 223.84 5.46 222.88 5.46C222.02 5.46 221.34 5.88 220.87 6.53L220.87 5.60L218.28 5.60L218.28 12.60L220.87 12.60L220.87 8.66C220.87 8.28 221.08 7.72 221.71 7.72C222.27 7.72 222.58 8.16 222.58 8.66L222.58 12.60L225.19 12.60L225.19 8.66C225.19 8.28 225.38 7.72 226.01 7.72C226.57 7.72 226.90 8.16 226.90 8.66L226.90 12.60L229.49 12.60L229.49 8.17C229.49 6.51 228.72 5.46 227.17 5.46ZM233.66 12.74C235.36 12.74 236.32 11.73 236.32 10.40C236.32 8.94 235.09 8.37 234.08 7.96C233.69 7.81 233.50 7.74 233.50 7.58C233.50 7.46 233.61 7.32 233.94 7.32C234.39 7.32 234.81 7.58 235.06 7.81L236.20 6.32C235.58 5.81 234.74 5.46 233.75 5.46C231.96 5.46 230.96 6.62 230.96 7.79C230.96 9.28 232.59 9.71 233.22 9.96C233.80 10.17 233.94 10.33 233.94 10.48C233.94 10.66 233.76 10.76 233.47 10.76C233.20 10.76 232.75 10.69 232.36 10.08L230.54 11.03C231.00 12.18 232.38 12.74 233.66 12.74Z">
    </path>
  </g>
</svg>
