<svg xmlns="http://www.w3.org/2000/svg" viewBox="0 0 300 300">
  <rect fill="#191238" x="0" y="0" width="300px" height="300px"></rect>

  <g
    id="a5ed98ff-5bda-44ca-bbfb-7bb78d1b82bc"
    fill="#ffffff"
    transform="matrix(3.106703519821167,0,0,3.106703519821167,17.172899731321102,153.22777472742789)"
  >
    <path
      d="M5.41 12.74C7.93 12.74 9.91 11.22 9.91 9.26L9.91 2.10L7.23 2.10L7.23 8.75C7.23 9.68 6.42 10.41 5.41 10.41C4.39 10.41 3.59 9.68 3.59 8.75L3.59 2.10L0.91 2.10L0.91 9.26C0.91 11.22 2.89 12.74 5.41 12.74ZM16.21 5.46C15.47 5.46 14.84 5.71 14.37 6.11L14.37 5.62L11.78 5.60L11.78 16.80L14.37 16.82L14.37 12.09C14.84 12.50 15.47 12.74 16.21 12.74C18.10 12.74 19.58 11.15 19.58 9.10C19.58 7.05 18.10 5.46 16.21 5.46ZM15.61 10.48C14.84 10.48 14.23 9.89 14.23 9.10C14.23 8.31 14.84 7.72 15.61 7.72C16.40 7.72 16.99 8.31 16.99 9.10C16.99 9.89 16.40 10.48 15.61 10.48ZM23.45 12.74C25.15 12.74 26.11 11.73 26.11 10.40C26.11 8.94 24.89 8.37 23.87 7.96C23.49 7.81 23.29 7.74 23.29 7.58C23.29 7.46 23.40 7.32 23.73 7.32C24.19 7.32 24.61 7.58 24.85 7.81L25.99 6.32C25.38 5.81 24.54 5.46 23.54 5.46C21.75 5.46 20.76 6.62 20.76 7.79C20.76 9.28 22.38 9.71 23.01 9.96C23.59 10.17 23.73 10.33 23.73 10.48C23.73 10.66 23.56 10.76 23.26 10.76C23.00 10.76 22.54 10.69 22.16 10.08L20.34 11.03C20.79 12.18 22.17 12.74 23.45 12.74ZM31.87 7.53L31.87 5.60L30.26 5.60L30.26 3.03L27.67 3.03L27.67 5.60L26.50 5.60L26.50 7.53L27.67 7.53L27.67 9.91C27.67 11.50 29.03 12.74 30.64 12.74C31.15 12.74 31.66 12.64 31.83 12.51L31.83 10.50L30.98 10.50C30.54 10.50 30.26 10.15 30.26 9.59L30.26 7.53ZM41.00 10.50C40.72 10.50 40.41 10.45 40.41 9.89L40.41 5.60L37.82 5.60L37.82 6.11C37.35 5.71 36.73 5.46 36.00 5.46C34.09 5.46 32.60 7.05 32.60 9.10C32.60 11.15 34.09 12.74 36.00 12.74C37.01 12.74 37.80 12.29 38.31 11.53C38.82 12.27 39.66 12.74 40.65 12.74C40.88 12.74 41.09 12.67 41.25 12.60L41.25 10.50ZM36.59 10.48C35.80 10.48 35.19 9.89 35.19 9.10C35.19 8.31 35.80 7.72 36.59 7.72C37.35 7.72 37.98 8.31 37.98 9.10C37.98 9.22 37.96 9.35 37.92 9.45L37.85 9.66C37.64 10.15 37.15 10.48 36.59 10.48ZM47.22 5.46C46.36 5.46 45.61 5.90 45.10 6.60L45.10 5.60L42.51 5.60L42.51 12.60L45.10 12.60L45.10 8.68C45.10 8.12 45.57 7.72 46.15 7.72C46.73 7.72 47.11 8.12 47.11 8.68L47.11 12.60L49.70 12.60L49.70 8.17C49.70 6.62 48.62 5.46 47.22 5.46ZM56.18 0.91L56.18 6.11C55.70 5.71 55.09 5.46 54.36 5.46C52.45 5.46 50.96 7.05 50.96 9.10C50.96 11.15 52.45 12.74 54.36 12.74C55.09 12.74 55.70 12.50 56.18 12.09L56.18 12.62L58.77 12.60L58.77 0.89ZM54.95 10.48C54.16 10.48 53.55 9.89 53.55 9.10C53.55 8.31 54.16 7.72 54.95 7.72C55.70 7.72 56.33 8.31 56.33 9.10C56.33 9.89 55.70 10.48 54.95 10.48ZM71.51 4.43L71.51 2.10L65.00 2.10L65.00 12.60L67.67 12.60L67.67 8.51L70.91 8.51L70.91 6.20L67.67 6.20L67.67 4.43ZM81.71 2.10L78.59 8.79L75.50 2.10L72.59 2.10L72.59 12.60L75.27 12.60L75.27 6.95L77.88 12.60L79.31 12.60L81.92 6.98L81.92 12.60L84.60 12.60L84.60 2.10Z"
    ></path>
  </g>

  <g
    id="70a6cf90-7c7b-411d-97a7-cbfa93a8d1d1"
    stroke="none"
    fill="#E96D77"
    transform="matrix(0.6358771324157715,0,0,0.6358771324157715,118.20582479634682,74.6034199352454)"
  >
    <path
      d="M50 69.23c-10.603 0-19.229-8.627-19.229-19.23S39.397 30.771 50 30.771c10.604 0 19.23 8.626 19.23 19.229 0 10.604-8.626 19.23-19.23 19.23zm0-30.459c-6.191 0-11.229 5.037-11.229 11.229 0 6.192 5.037 11.23 11.229 11.23 6.192 0 11.23-5.038 11.23-11.23 0-6.191-5.038-11.229-11.23-11.229z"
    ></path>
    <path
      d="M50 84.457C31 84.457 15.542 69 15.542 50S31 15.542 50 15.542 84.457 31 84.457 50 69 84.457 50 84.457zm0-60.915c-14.589 0-26.458 11.869-26.458 26.458 0 14.589 11.869 26.457 26.458 26.457 14.589 0 26.457-11.868 26.457-26.457S64.589 23.542 50 23.542z"
    ></path>
    <path
      d="M50 99.688C22.603 99.688.313 77.397.313 50S22.603.313 50 .313 99.688 22.603 99.688 50 77.397 99.688 50 99.688zm0-91.375C27.014 8.313 8.313 27.014 8.313 50S27.014 91.688 50 91.688 91.688 72.986 91.688 50 72.986 8.313 50 8.313z"
    ></path>
  </g>

  <g
    id="43961cec-e6f7-4468-ada9-d7f6cf6b19f9"
    fill="#eceaf1"
    transform="matrix(0.5905332565307617,0,0,0.5905332565307617,52.68897063823948,215.2647813080811)"
  >
    <path
      d="M7.40 12.60L10.27 12.60L6.48 2.10L3.48 2.10L-0.32 12.60L2.57 12.60L3.15 10.76L6.83 10.76ZM3.83 8.59L4.99 4.88L6.16 8.59ZM13.35 12.74C15.05 12.74 16.01 11.73 16.01 10.40C16.01 8.94 14.79 8.37 13.77 7.96C13.39 7.81 13.20 7.74 13.20 7.58C13.20 7.46 13.30 7.32 13.63 7.32C14.09 7.32 14.51 7.58 14.75 7.81L15.89 6.32C15.28 5.81 14.44 5.46 13.44 5.46C11.66 5.46 10.66 6.62 10.66 7.79C10.66 9.28 12.29 9.71 12.92 9.96C13.49 10.17 13.63 10.33 13.63 10.48C13.63 10.66 13.46 10.76 13.16 10.76C12.90 10.76 12.44 10.69 12.06 10.08L10.24 11.03C10.69 12.18 12.08 12.74 13.35 12.74ZM21.96 5.60L20.39 9.87L18.80 5.60L16.12 5.60L19.06 12.78L17.41 16.80L20.14 16.80L21.25 13.97L24.61 5.60ZM30.14 5.46C29.28 5.46 28.53 5.90 28.02 6.60L28.02 5.60L25.43 5.60L25.43 12.60L28.02 12.60L28.02 8.68C28.02 8.12 28.49 7.72 29.07 7.72C29.65 7.72 30.03 8.12 30.03 8.68L30.03 12.60L32.62 12.60L32.62 8.17C32.62 6.62 31.54 5.46 30.14 5.46ZM37.87 12.74C40.11 12.74 41.58 11.46 41.81 9.63L39.17 9.63C38.97 10.13 38.48 10.47 37.87 10.48C37.05 10.47 36.47 9.89 36.47 9.10C36.47 8.31 37.05 7.74 37.87 7.72C38.48 7.74 38.97 8.07 39.17 8.58L41.81 8.58C41.58 6.74 40.11 5.46 37.87 5.46C35.40 5.46 33.88 6.98 33.88 9.10C33.88 11.22 35.40 12.74 37.87 12.74ZM49.79 12.74C51.49 12.74 52.45 11.73 52.45 10.40C52.45 8.94 51.22 8.37 50.21 7.96C49.82 7.81 49.63 7.74 49.63 7.58C49.63 7.46 49.74 7.32 50.07 7.32C50.52 7.32 50.94 7.58 51.19 7.81L52.33 6.32C51.71 5.81 50.87 5.46 49.88 5.46C48.09 5.46 47.09 6.62 47.09 7.79C47.09 9.28 48.72 9.71 49.35 9.96C49.93 10.17 50.07 10.33 50.07 10.48C50.07 10.66 49.89 10.76 49.60 10.76C49.33 10.76 48.88 10.69 48.49 10.08L46.67 11.03C47.13 12.18 48.51 12.74 49.79 12.74ZM58.21 7.53L58.21 5.60L56.60 5.60L56.60 3.03L54.01 3.03L54.01 5.60L52.83 5.60L52.83 7.53L54.01 7.53L54.01 9.91C54.01 11.50 55.37 12.74 56.98 12.74C57.49 12.74 58.00 12.64 58.17 12.51L58.17 10.50L57.31 10.50C56.88 10.50 56.60 10.15 56.60 9.59L56.60 7.53ZM67.34 10.50C67.06 10.50 66.75 10.45 66.75 9.89L66.75 5.60L64.16 5.60L64.16 6.11C63.68 5.71 63.07 5.46 62.34 5.46C60.43 5.46 58.94 7.05 58.94 9.10C58.94 11.15 60.43 12.74 62.34 12.74C63.35 12.74 64.14 12.29 64.65 11.53C65.15 12.27 65.99 12.74 66.99 12.74C67.22 12.74 67.43 12.67 67.59 12.60L67.59 10.50ZM62.93 10.48C62.14 10.48 61.53 9.89 61.53 9.10C61.53 8.31 62.14 7.72 62.93 7.72C63.68 7.72 64.31 8.31 64.31 9.10C64.31 9.22 64.30 9.35 64.26 9.45L64.19 9.66C63.98 10.15 63.49 10.48 62.93 10.48ZM73.55 5.46C72.70 5.46 71.94 5.90 71.44 6.60L71.44 5.60L68.85 5.60L68.85 12.60L71.44 12.60L71.44 8.68C71.44 8.12 71.91 7.72 72.49 7.72C73.06 7.72 73.45 8.12 73.45 8.68L73.45 12.60L76.04 12.60L76.04 8.17C76.04 6.62 74.95 5.46 73.55 5.46ZM82.51 0.91L82.51 6.11C82.04 5.71 81.43 5.46 80.69 5.46C78.78 5.46 77.30 7.05 77.30 9.10C77.30 11.15 78.78 12.74 80.69 12.74C81.43 12.74 82.04 12.50 82.51 12.09L82.51 12.62L85.10 12.60L85.10 0.89ZM81.29 10.48C80.50 10.48 79.89 9.89 79.89 9.10C79.89 8.31 80.50 7.72 81.29 7.72C82.04 7.72 82.67 8.31 82.67 9.10C82.67 9.89 82.04 10.48 81.29 10.48ZM90.41 12.74C92.72 12.74 93.92 11.62 93.92 9.85L93.92 5.60L91.33 5.60L91.33 9.52C91.33 10.06 90.93 10.48 90.41 10.48C89.90 10.48 89.51 10.06 89.51 9.52L89.51 5.60L86.91 5.60L86.91 9.85C86.91 11.62 88.11 12.74 90.41 12.74ZM100.15 5.46C99.42 5.46 98.79 5.71 98.32 6.11L98.32 5.62L95.73 5.60L95.73 16.80L98.32 16.82L98.32 12.09C98.79 12.50 99.42 12.74 100.15 12.74C102.04 12.74 103.53 11.15 103.53 9.10C103.53 7.05 102.04 5.46 100.15 5.46ZM99.56 10.48C98.79 10.48 98.18 9.89 98.18 9.10C98.18 8.31 98.79 7.72 99.56 7.72C100.35 7.72 100.94 8.31 100.94 9.10C100.94 9.89 100.35 10.48 99.56 10.48ZM107.40 12.74C109.10 12.74 110.06 11.73 110.06 10.40C110.06 8.94 108.83 8.37 107.82 7.96C107.43 7.81 107.24 7.74 107.24 7.58C107.24 7.46 107.35 7.32 107.68 7.32C108.13 7.32 108.55 7.58 108.80 7.81L109.94 6.32C109.32 5.81 108.48 5.46 107.49 5.46C105.70 5.46 104.70 6.62 104.70 7.79C104.70 9.28 106.33 9.71 106.96 9.96C107.54 10.17 107.68 10.33 107.68 10.48C107.68 10.66 107.50 10.76 107.21 10.76C106.94 10.76 106.49 10.69 106.10 10.08L104.28 11.03C104.74 12.18 106.12 12.74 107.40 12.74ZM124.58 6.42L123.39 6.42L123.39 5.01L120.80 5.01L120.80 6.42L119.60 6.42C118.90 6.42 118.32 5.90 118.32 5.27C118.32 4.74 118.76 4.38 119.18 4.36L120.80 4.36L120.80 2.12L118.67 2.12C116.97 1.96 115.73 3.38 115.73 5.08C115.73 6.00 116.10 6.81 116.71 7.42C116.13 7.96 115.78 8.70 115.78 9.52C115.78 11.32 117.44 12.62 119.56 12.62C121.80 12.62 123.39 11.17 123.39 9.17L123.39 8.52L124.58 8.52ZM119.53 10.36C118.84 10.36 118.21 10.03 118.21 9.49C118.21 9.01 118.70 8.52 119.30 8.52L120.80 8.52L120.80 9.17C120.80 9.87 120.33 10.36 119.53 10.36ZM133.40 12.74C135.71 12.74 136.92 11.62 136.92 9.85L136.92 5.60L134.33 5.60L134.33 9.52C134.33 10.06 133.93 10.48 133.40 10.48C132.90 10.48 132.51 10.06 132.51 9.52L132.51 5.60L129.90 5.60L129.90 9.85C129.90 11.62 131.11 12.74 133.40 12.74ZM143.15 5.46C142.42 5.46 141.79 5.71 141.31 6.11L141.31 5.62L138.72 5.60L138.72 16.80L141.31 16.82L141.31 12.09C141.79 12.50 142.42 12.74 143.15 12.74C145.04 12.74 146.53 11.15 146.53 9.10C146.53 7.05 145.04 5.46 143.15 5.46ZM142.56 10.48C141.79 10.48 141.17 9.89 141.17 9.10C141.17 8.31 141.79 7.72 142.56 7.72C143.34 7.72 143.94 8.31 143.94 9.10C143.94 9.89 143.34 10.48 142.56 10.48ZM152.71 0.91L152.71 6.11C152.23 5.71 151.62 5.46 150.89 5.46C148.98 5.46 147.49 7.05 147.49 9.10C147.49 11.15 148.98 12.74 150.89 12.74C151.62 12.74 152.23 12.50 152.71 12.09L152.71 12.62L155.30 12.60L155.30 0.89ZM151.48 10.48C150.69 10.48 150.08 9.89 150.08 9.10C150.08 8.31 150.69 7.72 151.48 7.72C152.23 7.72 152.86 8.31 152.86 9.10C152.86 9.89 152.23 10.48 151.48 10.48ZM165.15 10.50C164.87 10.50 164.55 10.45 164.55 9.89L164.55 5.60L161.96 5.60L161.96 6.11C161.49 5.71 160.88 5.46 160.14 5.46C158.24 5.46 156.75 7.05 156.75 9.10C156.75 11.15 158.24 12.74 160.14 12.74C161.16 12.74 161.94 12.29 162.45 11.53C162.96 12.27 163.80 12.74 164.80 12.74C165.03 12.74 165.24 12.67 165.39 12.60L165.39 10.50ZM160.74 10.48C159.95 10.48 159.34 9.89 159.34 9.10C159.34 8.31 159.95 7.72 160.74 7.72C161.49 7.72 162.12 8.31 162.12 9.10C162.12 9.22 162.10 9.35 162.07 9.45L162.00 9.66C161.79 10.15 161.30 10.48 160.74 10.48ZM171.19 7.53L171.19 5.60L169.57 5.60L169.57 3.03L166.98 3.03L166.98 5.60L165.81 5.60L165.81 7.53L166.98 7.53L166.98 9.91C166.98 11.50 168.35 12.74 169.96 12.74C170.47 12.74 170.97 12.64 171.15 12.51L171.15 10.50L170.29 10.50C169.85 10.50 169.57 10.15 169.57 9.59L169.57 7.53ZM175.84 5.44C173.50 5.44 171.92 6.84 171.92 9.10C171.92 11.34 173.48 12.74 175.91 12.74C177.96 12.74 179.23 11.73 179.55 10.20L177.08 10.20C176.96 10.66 176.56 10.92 175.89 10.92C174.97 10.92 174.60 10.43 174.53 9.52L179.64 9.52L179.64 9.08C179.66 6.84 178.17 5.44 175.84 5.44ZM175.89 7.35C176.52 7.35 176.87 7.61 177.03 8.09L174.67 8.09C174.84 7.61 175.21 7.35 175.89 7.35ZM183.49 12.74C185.18 12.74 186.15 11.73 186.15 10.40C186.15 8.94 184.92 8.37 183.91 7.96C183.52 7.81 183.33 7.74 183.33 7.58C183.33 7.46 183.43 7.32 183.77 7.32C184.22 7.32 184.64 7.58 184.89 7.81L186.02 6.32C185.41 5.81 184.57 5.46 183.57 5.46C181.79 5.46 180.79 6.62 180.79 7.79C180.79 9.28 182.42 9.71 183.05 9.96C183.63 10.17 183.77 10.33 183.77 10.48C183.77 10.66 183.59 10.76 183.29 10.76C183.03 10.76 182.58 10.69 182.19 10.08L180.37 11.03C180.83 12.18 182.21 12.74 183.49 12.74ZM196.07 5.60L194.48 5.60L194.48 4.04C194.48 3.48 194.74 3.13 195.18 3.13L196.03 3.13L196.03 1.12C195.86 1.00 195.37 0.89 194.84 0.89C193.23 0.89 191.87 2.13 191.87 3.75L191.87 5.60L190.70 5.60L190.70 7.53L191.87 7.53L191.87 12.60L194.48 12.60L194.48 7.53L196.07 7.53ZM200.50 12.74C202.95 12.74 204.47 11.22 204.47 9.10C204.47 6.98 202.95 5.46 200.50 5.46C198.03 5.46 196.51 6.98 196.51 9.10C196.51 11.22 198.03 12.74 200.50 12.74ZM200.50 10.48C199.68 10.47 199.10 9.91 199.10 9.10C199.10 8.30 199.68 7.74 200.50 7.72C201.30 7.74 201.88 8.30 201.88 9.10C201.88 9.91 201.30 10.47 200.50 10.48ZM210.35 5.46C209.58 5.46 208.93 5.88 208.50 6.58L208.50 5.60L205.91 5.60L205.91 12.60L208.50 12.60L208.50 9.38C208.50 8.28 209.21 7.72 210.25 7.72C210.53 7.72 210.77 7.75 210.94 7.79L210.94 5.55C210.79 5.50 210.56 5.46 210.35 5.46ZM220.52 16.75L220.52 14.91C219.26 14.96 218.24 13.48 218.24 8.59C218.24 3.68 219.26 2.15 220.52 2.21L220.52 0.37C217.98 0.31 215.98 2.36 215.98 8.59C215.98 14.79 217.98 16.80 220.52 16.75ZM226.80 5.46C226.03 5.46 225.38 5.88 224.94 6.58L224.94 5.60L222.35 5.60L222.35 12.60L224.94 12.60L224.94 9.38C224.94 8.28 225.66 7.72 226.69 7.72C226.97 7.72 227.22 7.75 227.39 7.79L227.39 5.55C227.24 5.50 227.01 5.46 226.80 5.46ZM231.70 5.44C229.35 5.44 227.78 6.84 227.78 9.10C227.78 11.34 229.34 12.74 231.77 12.74C233.82 12.74 235.09 11.73 235.41 10.20L232.94 10.20C232.82 10.66 232.42 10.92 231.75 10.92C230.82 10.92 230.46 10.43 230.39 9.52L235.50 9.52L235.50 9.08C235.51 6.84 234.03 5.44 231.70 5.44ZM231.75 7.35C232.38 7.35 232.73 7.61 232.89 8.09L230.53 8.09C230.70 7.61 231.07 7.35 231.75 7.35ZM245.82 5.46C244.77 5.46 243.98 5.93 243.55 6.76C243.20 5.99 242.50 5.46 241.53 5.46C240.68 5.46 239.99 5.88 239.52 6.53L239.52 5.60L236.93 5.60L236.93 12.60L239.52 12.60L239.52 8.66C239.52 8.28 239.73 7.72 240.36 7.72C240.92 7.72 241.24 8.16 241.24 8.66L241.24 12.60L243.84 12.60L243.84 8.66C243.84 8.28 244.04 7.72 244.67 7.72C245.23 7.72 245.56 8.16 245.56 8.66L245.56 12.60L248.15 12.60L248.15 8.17C248.15 6.51 247.38 5.46 245.82 5.46ZM253.40 12.74C255.85 12.74 257.37 11.22 257.37 9.10C257.37 6.98 255.85 5.46 253.40 5.46C250.93 5.46 249.41 6.98 249.41 9.10C249.41 11.22 250.93 12.74 253.40 12.74ZM253.40 10.48C252.58 10.47 252.00 9.91 252.00 9.10C252.00 8.30 252.58 7.74 253.40 7.72C254.20 7.74 254.78 8.30 254.78 9.10C254.78 9.91 254.20 10.47 253.40 10.48ZM263.34 7.53L263.34 5.60L261.73 5.60L261.73 3.03L259.14 3.03L259.14 5.60L257.97 5.60L257.97 7.53L259.14 7.53L259.14 9.91C259.14 11.50 260.50 12.74 262.11 12.74C262.62 12.74 263.13 12.64 263.30 12.51L263.30 10.50L262.45 10.50C262.01 10.50 261.73 10.15 261.73 9.59L261.73 7.53ZM267.99 5.44C265.65 5.44 264.07 6.84 264.07 9.10C264.07 11.34 265.63 12.74 268.06 12.74C270.11 12.74 271.39 11.73 271.70 10.20L269.24 10.20C269.11 10.66 268.71 10.92 268.05 10.92C267.12 10.92 266.75 10.43 266.68 9.52L271.79 9.52L271.79 9.08C271.81 6.84 270.32 5.44 267.99 5.44ZM268.05 7.35C268.68 7.35 269.03 7.61 269.18 8.09L266.82 8.09C267.00 7.61 267.36 7.35 268.05 7.35ZM273.12 16.75C275.68 16.80 277.65 14.79 277.65 8.59C277.65 2.36 275.68 0.31 273.12 0.37L273.12 2.21C274.38 2.15 275.40 3.68 275.40 8.59C275.40 13.48 274.38 14.96 273.12 14.91ZM288.29 7.53L288.29 5.60L286.68 5.60L286.68 3.03L284.09 3.03L284.09 5.60L282.92 5.60L282.92 7.53L284.09 7.53L284.09 9.91C284.09 11.50 285.46 12.74 287.07 12.74C287.58 12.74 288.08 12.64 288.26 12.51L288.26 10.50L287.40 10.50C286.96 10.50 286.68 10.15 286.68 9.59L286.68 7.53ZM292.95 5.44C290.60 5.44 289.03 6.84 289.03 9.10C289.03 11.34 290.59 12.74 293.02 12.74C295.07 12.74 296.34 11.73 296.66 10.20L294.19 10.20C294.07 10.66 293.67 10.92 293.00 10.92C292.07 10.92 291.71 10.43 291.64 9.52L296.75 9.52L296.75 9.08C296.76 6.84 295.28 5.44 292.95 5.44ZM293.00 7.35C293.63 7.35 293.98 7.61 294.14 8.09L291.78 8.09C291.95 7.61 292.32 7.35 293.00 7.35ZM306.09 10.50C305.81 10.50 305.50 10.45 305.50 9.89L305.50 5.60L302.91 5.60L302.91 6.11C302.43 5.71 301.82 5.46 301.09 5.46C299.18 5.46 297.69 7.05 297.69 9.10C297.69 11.15 299.18 12.74 301.09 12.74C302.10 12.74 302.89 12.29 303.40 11.53C303.90 12.27 304.74 12.74 305.74 12.74C305.97 12.74 306.18 12.67 306.34 12.60L306.34 10.50ZM301.68 10.48C300.89 10.48 300.28 9.89 300.28 9.10C300.28 8.31 300.89 7.72 301.68 7.72C302.43 7.72 303.06 8.31 303.06 9.10C303.06 9.22 303.05 9.35 303.01 9.45L302.94 9.66C302.73 10.15 302.24 10.48 301.68 10.48ZM316.49 5.46C315.44 5.46 314.65 5.93 314.21 6.76C313.86 5.99 313.16 5.46 312.20 5.46C311.34 5.46 310.66 5.88 310.19 6.53L310.19 5.60L307.60 5.60L307.60 12.60L310.19 12.60L310.19 8.66C310.19 8.28 310.40 7.72 311.03 7.72C311.59 7.72 311.90 8.16 311.90 8.66L311.90 12.60L314.51 12.60L314.51 8.66C314.51 8.28 314.70 7.72 315.33 7.72C315.89 7.72 316.22 8.16 316.22 8.66L316.22 12.60L318.81 12.60L318.81 8.17C318.81 6.51 318.05 5.46 316.49 5.46ZM322.98 12.74C324.68 12.74 325.64 11.73 325.64 10.40C325.64 8.94 324.41 8.37 323.40 7.96C323.01 7.81 322.82 7.74 322.82 7.58C322.82 7.46 322.93 7.32 323.26 7.32C323.71 7.32 324.13 7.58 324.38 7.81L325.52 6.32C324.90 5.81 324.06 5.46 323.07 5.46C321.28 5.46 320.28 6.62 320.28 7.79C320.28 9.28 321.91 9.71 322.54 9.96C323.12 10.17 323.26 10.33 323.26 10.48C323.26 10.66 323.08 10.76 322.79 10.76C322.52 10.76 322.07 10.69 321.68 10.08L319.86 11.03C320.32 12.18 321.70 12.74 322.98 12.74ZM328.51 12.74C329.26 12.74 329.89 12.11 329.89 11.38C329.89 10.62 329.26 10.01 328.51 10.01C327.77 10.01 327.14 10.62 327.14 11.38C327.14 12.11 327.77 12.74 328.51 12.74Z"
    ></path>
  </g>
</svg>
